<svg width="51" height="45" viewBox="0 0 51 45" fill="none" xmlns="http://www.w3.org/2000/svg">
<path fill-rule="evenodd" clip-rule="evenodd" d="M0.0874378 27.0075V43.125C0.0874378 44.16 0.927438 45 1.96244 45H5.99744C6.44148 45.0001 6.87114 44.8426 7.20992 44.5555C7.5487 44.2685 7.77462 43.8705 7.84744 43.4325L8.83744 37.5H41.3374L42.3249 43.4325C42.3978 43.8705 42.6237 44.2685 42.9625 44.5555C43.3012 44.8426 43.7309 45.0001 44.1749 45H48.2124C48.7097 45 49.1866 44.8025 49.5383 44.4508C49.8899 44.0992 50.0874 43.6223 50.0874 43.125V27.0075C50.0876 24.0686 49.2177 21.1953 47.5874 18.75L45.6374 15.825C45.4635 15.5646 45.3145 15.2884 45.1924 15H47.6774C48.0258 15 48.3673 14.9029 48.6636 14.7197C48.9599 14.5364 49.1993 14.2742 49.3549 13.9625L49.9799 12.7125C50.1226 12.4268 50.1899 12.1095 50.1755 11.7905C50.1611 11.4715 50.0655 11.1615 49.8977 10.8899C49.73 10.6182 49.4956 10.3939 49.2169 10.2381C48.9381 10.0824 48.6242 10.0004 48.3049 10H44.0874L43.3124 6.135C43.0767 4.95789 42.5068 3.87359 41.6712 3.01173C40.8355 2.14988 39.7692 1.54694 38.5999 1.275C34.9449 0.425001 30.4399 0 25.0874 0C19.7324 0 15.2299 0.425001 11.5749 1.275C10.4052 1.54652 9.33842 2.14927 8.50225 3.01115C7.66608 3.87304 7.09591 4.95757 6.85994 6.135L6.08494 10H1.87244C1.55315 10.0004 1.23925 10.0824 0.960514 10.2381C0.681772 10.3939 0.447417 10.6182 0.279657 10.8899C0.111898 11.1615 0.0162938 11.4715 0.00190511 11.7905C-0.0124835 12.1095 0.0548201 12.4268 0.197438 12.7125L0.822438 13.9625C0.977864 14.2738 1.21686 14.5358 1.51268 14.719C1.8085 14.9022 2.14947 14.9995 2.49744 15H4.98494C4.86278 15.2883 4.71379 15.5645 4.53994 15.825L2.58744 18.75C0.957438 21.195 0.0874378 24.0675 0.0874378 27.0075ZM39.9899 15.01C40.1622 15.8747 40.448 16.7128 40.8399 17.5025H9.33494C9.72744 16.715 10.0124 15.8775 10.1849 15.01L11.7649 7.1175C11.8116 6.88153 11.9253 6.66403 12.0925 6.49108C12.2597 6.31814 12.4732 6.19711 12.7074 6.1425C15.9524 5.3925 20.0874 5 25.0874 5C30.0874 5 34.2224 5.39 37.4674 6.145C37.7018 6.199 37.9156 6.31947 38.0833 6.49197C38.2509 6.66447 38.3652 6.88166 38.4124 7.1175L39.9899 15.01ZM8.83744 30C9.832 30 10.7858 29.6049 11.4891 28.9017C12.1923 28.1984 12.5874 27.2446 12.5874 26.25C12.5874 25.2554 12.1923 24.3016 11.4891 23.5983C10.7858 22.8951 9.832 22.5 8.83744 22.5C7.84288 22.5 6.88905 22.8951 6.18579 23.5983C5.48253 24.3016 5.08744 25.2554 5.08744 26.25C5.08744 27.2446 5.48253 28.1984 6.18579 28.9017C6.88905 29.6049 7.84288 30 8.83744 30ZM45.0874 26.25C45.0874 27.2446 44.6923 28.1984 43.9891 28.9017C43.2858 29.6049 42.332 30 41.3374 30C40.3429 30 39.3891 29.6049 38.6858 28.9017C37.9825 28.1984 37.5874 27.2446 37.5874 26.25C37.5874 25.2554 37.9825 24.3016 38.6858 23.5983C39.3891 22.8951 40.3429 22.5 41.3374 22.5C42.332 22.5 43.2858 22.8951 43.9891 23.5983C44.6923 24.3016 45.0874 25.2554 45.0874 26.25Z" fill="#F5F6FA"/>
</svg>
